#!OML:ASF E:\emotionWalksFemale\Project 1\Capture day 1\Session 1\Female1.ASF
:FULLY-SPECIFIED
:DEGREES
2310
root -7.93171 15.5531 11.4391 3.08394 2.08285 361.029
lowerback 10.3432 0.369744 -3.07903
upperback -2.79647 0.0335412 -0.450928
thorax -8.80407 0.168261 1.24955
lowerneck -9.52326 0.0379375 -2.07019
upperneck 12.7629 0.21283 1.10503
head 5.40796 0.0829725 0.700277
rclavicle -4.84538e-015 -8.74653e-015
rhumerus -41.3089 2.86152 -83.2395
rradius 33.1798
rwrist 15.2561
rhand -8.51918 -49.4573
rfingers 7.12502
rthumb 17.4092 -438.698
lclavicle -4.84538e-015 -8.74653e-015
lhumerus -31.6061 -1.61328 84.907
lradius 48.2009
lwrist -10.9099
lhand -8.91125 -25.9541
lfingers 7.12502
lthumb 17.0319 3.31929
rfemur -28.222 -0.804353 21.2754
rtibia 48.5622
rfoot -15.2749 -24.9165
rtoes -6.48125
lfemur -2.53666 -19.6037 -32.3041
ltibia 19.2914
lfoot -22.7203 22.5125
ltoes -17.9398
2311
root -7.9504 15.5498 11.5674 3.13303 2.38736 361.132
lowerback 10.3547 0.330451 -3.22642
upperback -2.85219 -0.0439297 -0.485164
thorax -8.8686 0.13916 1.3097
lowerneck -9.63246 0.0115531 -2.17231
upperneck 13.0022 0.192331 1.12239
head 5.50145 0.0685566 0.721944
rclavicle -4.62174e-015 -1.39149e-015
rhumerus -41.5095 2.99006 -83.2317
rradius 33.1927
rwrist 15.2344
rhand -8.43084 -49.2857
rfingers 7.12502
rthumb 17.4942 -438.519
lclavicle -4.62174e-015 -1.39149e-015
lhumerus -31.3288 -2.38989 85.3828
lradius 48.7245
lwrist -10.4367
lhand -9.10576 -26.0364
lfingers 7.12502
lthumb 16.8446 3.25303
rfemur -28.5932 -0.0715371 21.0825
rtibia 46.1852
rfoot -15.1652 -25.274
rtoes -7.1129
lfemur -1.79089 -19.6687 -32.4919
ltibia 18.8001
lfoot -22.3566 22.9607
ltoes -16.7989
2312
root -7.97052 15.543 11.6979 3.109 2.65973 361.067
lowerback 10.3446 0.310861 -3.23375
upperback -2.83566 -0.0718251 -0.502706
thorax -8.84342 0.124959 1.30016
lowerneck -9.67518 -0.0842855 -2.05649
upperneck 13.072 0.053877 1.06344
head 5.53297 0.00234737 0.674369
rclavicle -6.73383e-015 9.54166e-015
rhumerus -41.6456 2.94902 -83.2392
rradius 33.2645
rwrist 15.3733
rhand -8.25893 -49.3543
rfingers 7.12502
rthumb 17.6597 -438.572
lclavicle -6.73383e-015 9.54166e-015
lhumerus -31.0561 -3.01602 85.7519
lradius 49.3855
lwrist -10.0448
lhand -9.32992 -26.2474
lfingers 7.12502
lthumb 16.6288 3.0602
rfemur -28.7504 0.772158 21.0649
rtibia 43.6932
rfoot -15.2767 -25.5367
rtoes -8.03566
lfemur -0.948729 -19.6115 -32.5111
ltibia 18.2141
lfoot -21.9485 22.9123
ltoes -15.7036
2313
root -7.98876 15.535 11.8337 3.053 2.87621 360.974
lowerback 10.2019 0.315678 -3.21152
upperback -2.73106 -0.0543836 -0.506793
thorax -8.6473 0.12812 1.28055
lowerneck -9.6934 -0.220441 -2.13049
upperneck 13.002 -0.143375 1.23558
head 5.51745 -0.0848027 0.725404
rclavicle 9.54788e-015 -2.38542e-015
rhumerus -41.5913 2.93385 -83.1848
rradius 33.3001
rwrist 15.2851
rhand -8.16649 -49.472
rfingers 7.12502
rthumb 17.7486 -438.682
lclavicle 9.54788e-015 -2.38542e-015
lhumerus -30.8183 -3.33072 86.0891
lradius 50.2178
lwrist -9.8519
lhand -9.58643 -26.3802
lfingers 7.12502
lthumb 16.3819 2.94799
rfemur -28.793 1.67303 21.0297
rtibia 41.122
rfoot -14.9399 -26.2675
rtoes -10.5798
lfemur -0.0098614 -19.629 -32.5378
ltibia 17.552
lfoot -22.6651 21.6064
ltoes -14.1518
2314
root -8.00705 15.5326 11.9698 3.02262 3.14235 361.04
lowerback 10.1761 0.313772 -3.31646
upperback -2.7378 -0.0735161 -0.546918
thorax -8.63919 0.123133 1.30028
lowerneck -9.59889 -0.286273 -2.24162
upperneck 12.9889 -0.238861 1.38575
head 5.49916 -0.12624 0.783429
rclavicle 4.07509e-015 2.50469e-014
rhumerus -41.7752 2.95862 -83.1341
rradius 33.4405
rwrist 15.0392
rhand -8.30875 -49.5017
rfingers 7.12502
rthumb 17.6117 -438.724
lclavicle 4.07509e-015 2.50469e-014
lhumerus -30.7651 -4.04474 86.4698
lradius 50.9256
lwrist -9.36834
lhand -9.87797 -26.4638
lfingers 7.12502
lthumb 16.1012 2.88728
rfemur -28.8304 2.65641 20.7484
rtibia 38.5048
rfoot -14.2629 -27.7194
rtoes -14.884
lfemur 0.923383 -19.5877 -32.7117
ltibia 16.8908
lfoot -21.7825 22.4497
ltoes -13.6276
2315
root -8.0256 15.5334 12.1064 2.99022 3.36913 361.108
lowerback 10.1516 0.305615 -3.43106
upperback -2.74186 -0.101667 -0.5801
thorax -8.62852 0.114419 1.33439
lowerneck -9.52299 -0.301522 -2.09605
upperneck 12.9689 -0.258293 1.21146
head 5.48008 -0.14112 0.703448
rclavicle 4.96962e-016 3.02153e-014
rhumerus -42.0384 2.95108 -83.0909
rradius 33.7354
rwrist 14.9551
rhand -8.31723 -49.6371
rfingers 7.12502
rthumb 17.6036 -438.86
lclavicle 4.96962e-016 3.02153e-014
lhumerus -30.6361 -4.73077 86.8397
lradius 51.5277
lwrist -8.90322
lhand -9.96898 -26.6424
lfingers 7.12502
lthumb 16.0135 2.71582
rfemur -28.8031 3.90273 20.3764
rtibia 35.9073
rfoot -14.2079 -29.0998
rtoes -16.9769
lfemur 1.90505 -19.5215 -32.8948
ltibia 16.1785
lfoot -21.7049 21.9693
ltoes -13.3078
2316
root -8.04345 15.5243 12.2442 3.00596 3.5243 361.118
lowerback 9.77955 0.271617 -3.57704
upperback -2.57438 -0.140945 -0.522914
thorax -8.22921 0.0961875 1.48421
lowerneck -9.67845 -0.271549 -2.2378
upperneck 12.919 -0.198582 1.25562
head 5.49014 -0.115171 0.744887
rclavicle -5.87036e-015 -2.78299e-015
rhumerus -41.8963 3.2253 -83.0212
rradius 33.9083
rwrist 14.8956
rhand -8.22604 -49.849
rfingers 7.12502
rthumb 17.6913 -439.064
lclavicle -5.87036e-015 -2.78299e-015
lhumerus -30.2628 -4.66768 87.168
lradius 52.1418
lwrist -9.06785
lhand -9.89758 -26.88
lfingers 7.12502
lthumb 16.0823 2.47261
rfemur -28.7756 5.39254 19.9537
rtibia 33.3779
rfoot -15.3597 -30.0812
rtoes -14.287
lfemur 2.89949 -19.4909 -33.0249
ltibia 15.3795
lfoot -21.7551 21.465
ltoes -12.7237
2317
root -8.05974 15.5093 12.3794 3.09858 3.64315 361.266
lowerback 9.82799 0.278589 -3.71729
upperback -2.75501 -0.161755 -0.583983
thorax -8.45244 0.0974107 1.5014
lowerneck -9.57806 -0.291854 -2.58744
upperneck 13.0477 -0.237545 1.69067
head 5.5145 -0.120915 0.93601
rclavicle -1.758e-015 1.03368e-014
rhumerus -42.2282 3.42664 -82.9651
rradius 34.0411
rwrist 14.8136
rhand -8.06244 -49.7974
rfingers 7.12502
rthumb 17.8488 -438.998
lclavicle -1.758e-015 1.03368e-014
lhumerus -30.3715 -5.14807 87.4821
lradius 52.5373
lwrist -8.94187
lhand -9.98748 -26.8758
lfingers 7.12502
lthumb 15.9957 2.48381
rfemur -28.8215 6.96315 19.2839
rtibia 30.9382
rfoot -16.7563 -30.844
rtoes -9.68242
lfemur 3.77835 -19.3161 -33.2714
ltibia 14.6828
lfoot -21.4134 21.3115
ltoes -12.1715
2318
root -8.07578 15.4975 12.5178 3.14033 3.72609 361.372
lowerback 9.62118 0.288354 -3.83451
upperback -2.72869 -0.157091 -0.632413
thorax -8.30452 0.101403 1.51496
lowerneck -9.50165 -0.352221 -2.65845
upperneck 12.9462 -0.331394 1.84189
head 5.47212 -0.15938 0.987652
rclavicle 1.14425e-014 1.19271e-015
rhumerus -42.271 3.56827 -82.928
rradius 34.2152
rwrist 14.5896
rhand -7.96643 -49.5945
rfingers 7.12502
rthumb 17.9411 -438.787
lclavicle 1.14425e-014 1.19271e-015
lhumerus -30.2031 -5.93443 87.7765
lradius 52.7523
lwrist -8.45895
lhand -10.1282 -26.8094
lfingers 7.12502
lthumb 15.8602 2.56106
rfemur -28.8274 8.80445 18.5476
rtibia 28.6226
rfoot -17.4658 -31.8752
rtoes -6.82725
lfemur 4.65013 -19.0912 -33.4785
ltibia 14.159
lfoot -21.4859 21
ltoes -11.0728
2319
root -8.09554 15.4864 12.656 3.11119 3.84701 361.288
lowerback 9.29271 0.275058 -3.86899
upperback -2.55293 -0.153161 -0.567063
thorax -7.92432 0.0978912 1.60305
lowerneck -9.65536 -0.387274 -2.57257
upperneck 12.945 -0.36559 1.68424
head 5.49844 -0.182457 0.921614
rclavicle -2.65253e-015 -1.21259e-014
rhumerus -42.0838 3.76318 -82.8967
rradius 34.396
rwrist 14.3055
rhand -7.93809 -49.6115
rfingers 7.12502
rthumb 17.9684 -438.801
lclavicle -2.65253e-015 -1.21259e-014
lhumerus -29.9733 -6.04529 88.058
lradius 53.1873
lwrist -8.55779
lhand -10.0302 -26.9606
lfingers 7.12502
lthumb 15.9546 2.40233
rfemur -28.824 11.1228 17.834
rtibia 26.5005
rfoot -17.8826 -33.555
rtoes -5.66746
lfemur 5.51557 -18.839 -33.4416
ltibia 13.6459
lfoot -21.8201 20.6574
ltoes -9.56188
2320
root -8.11511 15.475 12.7881 3.16119 3.96597 361.333
lowerback 9.84846 0.342929 -3.81694
upperback -2.99741 -0.104883 -0.686719
thorax -8.73147 0.134951 1.43762
lowerneck -9.49824 -0.450519 -2.40512
upperneck 13.437 -0.478629 1.64656
head 5.62739 -0.233757 0.875261
rclavicle -8.28684e-015 -2.18663e-015
rhumerus -42.8542 3.69577 -82.9209
rradius 34.6597
rwrist 14.1319
rhand -7.83715 -49.7662
rfingers 7.12502
rthumb 18.0655 -438.947
lclavicle -8.28684e-015 -2.18663e-015
lhumerus -30.658 -6.5071 88.3489
lradius 53.7716
lwrist -8.76776
lhand -10.0132 -26.8639
lfingers 7.12502
lthumb 15.9709 2.4977
rfemur -28.9586 13.9165 16.7188
rtibia 24.5647
rfoot -18.6487 -35.7488
rtoes -3.64748
lfemur 6.20165 -18.4874 -33.4848
ltibia 13.1955
lfoot -21.6131 20.5029
ltoes -9.64041
2321
root -8.13353 15.4594 12.9264 3.17286 4.02353 361.475
lowerback 9.62364 0.369971 -4.01195
upperback -2.90035 -0.0848155 -0.744273
thorax -8.49717 0.148035 1.48316
lowerneck -9.66566 -0.47369 -2.38899
upperneck 13.4867 -0.514604 1.68424
head 5.67234 -0.247151 0.881772
rclavicle 9.82742e-015 1.27222e-014
rhumerus -42.6864 3.72122 -82.8458
rradius 34.8083
rwrist 13.8762
rhand -7.79191 -49.928
rfingers 7.12502
rthumb 18.1091 -439.105
lclavicle 9.82742e-015 1.27222e-014
lhumerus -30.4287 -6.89871 88.5042
lradius 54.0292
lwrist -8.79221
lhand -10.0312 -26.8111
lfingers 7.12502
lthumb 15.9536 2.55184
rfemur -29.0596 17.123 15.3196
rtibia 22.7772
rfoot -20.5346 -38.2242
rtoes 0.779537
lfemur 6.85854 -18.0632 -33.6583
ltibia 12.9787
lfoot -21.1522 20.4195
ltoes -9.40372
2322
root -8.1546 15.4412 13.07 3.10328 4.07265 361.415
lowerback 9.44315 0.387634 -4.00221
upperback -2.79169 -0.0502163 -0.780516
thorax -8.27632 0.157962 1.43413
lowerneck -9.77556 -0.486689 -2.33482
upperneck 13.4378 -0.554994 1.79949
head 5.67667 -0.255084 0.905828
rclavicle 1.69837e-014 0
rhumerus -42.6041 3.50736 -82.829
rradius 34.9044
rwrist 13.8522
rhand -8.14153 -50.0401
rfingers 7.12502
rthumb 17.7727 -439.248
lclavicle 1.69837e-014 0
lhumerus -30.3753 -7.24458 88.5538
lradius 54.3056
lwrist -8.74121
lhand -10.0416 -26.7977
lfingers 7.12502
lthumb 15.9436 2.56611
rfemur -29.2021 20.6161 14.0163
rtibia 21.2333
rfoot -24.0925 -40.6523
rtoes 6.72482
lfemur 7.54153 -17.6446 -33.6142
ltibia 12.8583
lfoot -20.8642 20.2793
ltoes -8.0565
2323
root -8.17633 15.4274 13.2103 3.08552 4.06405 361.197
lowerback 9.08448 0.383432 -3.89785
upperback -2.59233 -0.0150844 -0.733241
thorax -7.8543 0.161345 1.42136
lowerneck -10.0155 -0.444155 -2.23091
upperneck 13.3139 -0.526258 1.92494
head 5.6781 -0.225468 0.930025
rclavicle -1.68967e-015 -1.19271e-015
rhumerus -42.2828 3.40588 -82.8145
rradius 34.8717
rwrist 13.9915
rhand -8.62778 -49.8769
rfingers 7.12502
rthumb 17.3047 -439.126
lclavicle -1.68967e-015 -1.19271e-015
lhumerus -30.2164 -7.50411 88.5782
lradius 54.6117
lwrist -8.67523
lhand -10.1455 -26.5722
lfingers 7.12502
lthumb 15.8436 2.79956
rfemur -29.6698 24.354 12.6726
rtibia 20.0187
rfoot -28.766 -42.9432
rtoes 13.0907
lfemur 8.13993 -17.1746 -33.3587
ltibia 12.691
lfoot -20.6672 20.0577
ltoes -8.08832
